<mxfile host="app.diagrams.net" modified="2024-04-01T21:22:26.809Z" agent="Mozilla/5.0 (Windows NT 10.0; Win64; x64) AppleWebKit/537.36 (KHTML, like Gecko) Chrome/123.0.0.0 Safari/537.36" version="24.2.1" etag="bS5-LsSSEdN0B1WzlKSq" type="github">
  <diagram name="Page-1" id="5tz6T7UoEAkKvdXr4Fgv">
    <mxGraphModel>
      <root>
        <mxCell id="0" />
        <mxCell id="1" parent="0" />
      </root>
    </mxGraphModel>
  </diagram>
</mxfile>
